<svg height="464pt" viewBox="0 0 464 464" width="464pt" xmlns="http://www.w3.org/2000/svg"><path d="m224 72h224v136h-224zm0 0" fill="#71bf79"/><path d="m176 208h288v240h-288zm0 0" fill="#5da364"/><path d="m0 232v200c0 17.601562 32 32 72 32s72-14.398438 72-32v-200zm0 0" fill="#f4a422"/><path d="m144 232c0-17.671875-32.234375-32-72-32s-72 14.328125-72 32 32.234375 32 72 32 72-14.328125 72-32zm0 0" fill="#f4c167"/><path d="m0 312c0 17.601562 32 32 72 32s72-14.398438 72-32v-40c0 17.601562-32 32-72 32s-72-14.398438-72-32zm0 0" fill="#e8821c"/><path d="m424 344c-8.800781 0-16-7.199219-16-16v-8h-176c0 13.601562-10.398438 24-24 24v48h8c8.800781 0 16 7.199219 16 16v8h176c0-13.601562 10.398438-24 24-24v-48zm0 0" fill="#538457"/><path d="m368 360h32v16h-32zm0 0" fill="#edc17c"/><path d="m232 360h32v16h-32zm0 0" fill="#edc17c"/><path d="m176 232h288v16h-288zm0 0" fill="#538457"/><path d="m192 112v-96c0-8.800781-7.199219-16-16-16h-144c-8.800781 0-16 7.199219-16 16v96c0 8.800781 7.199219 16 16 16h48l24 32 24-32h48c8.800781 0 16-7.199219 16-16zm0 0" fill="#4282b7"/><path d="m66.097656 90.585938 63.921875-63.921876 11.3125 11.316407-63.921875 63.921875zm0 0" fill="#2b4a66"/><path d="m72 32h16v16h-16zm0 0" fill="#2b4a66"/><path d="m120 80h16v16h-16zm0 0" fill="#2b4a66"/><g fill="#edc17c"><path d="m352 136c0 8.835938-7.164062 16-16 16s-16-7.164062-16-16 7.164062-16 16-16 16 7.164062 16 16zm0 0"/><path d="m264 128h-16v-32h40v16h-24zm0 0"/><path d="m424 184h-40v-16h24v-16h16zm0 0"/><path d="m424 128h-16v-16h-24v-16h40zm0 0"/><path d="m288 184h-40v-32h16v16h24zm0 0"/></g><path d="m0 392c0 17.601562 32 32 72 32s72-14.398438 72-32v-40c0 17.601562-32 32-72 32s-72-14.398438-72-32zm0 0" fill="#e8821c"/><path d="m176 272h288v16h-288zm0 0" fill="#538457"/><path d="m296 208h48v240h-48zm0 0" fill="#edd9be"/></svg>