<svg id="Layer_1" enable-background="new 0 0 512 512" height="512" viewBox="0 0 512 512" width="512" xmlns="http://www.w3.org/2000/svg"><path d="m409.3 11h-68.3l38 124.4h45.5z" fill="#5fcda4"/><path d="m374.9 375.6-53.6 28.9c-2.2-13.6-14-23.6-27.8-23.7h-37.8c-6.8 0-13.5-1.5-19.6-4.5l-3.9-1.9c-21.2-10.3-46.4-7.8-65.2 6.4l-9.4 8.4c-5 4.5-11.2 7.5-17.8 8.7l-.2.1 21.5 70.5 30.8-19.5c4.7-2.6 10.2-3.4 15.5-2l56.8 10.5c14.6 2.6 29.6.5 42.8-6l98.3-67.5c-6.3-10.5-19.7-14.2-30.4-8.4z" fill="#ffd8b7"/><path d="m350.9 43.5-30.8 19.5c-4.7 2.6-10.2 3.4-15.5 2l-56.8-10.5c-14.6-2.6-29.6-.5-42.8 6l-98.3 67.5c6.3 10.4 19.6 14.1 30.3 8.3l53.6-28.9c2.2 13.6 14 23.6 27.8 23.7h37.8c6.8 0 13.5 1.5 19.6 4.5l3.9 1.9c21.2 10.3 46.4 7.8 65.2-6.4l9.4-8.4c5-4.5 11.2-7.5 17.8-8.7l.2-.1z" fill="#ffd8b7"/><path d="m369.9 378.2c-4.7-8.2-15.7-12.8-24.2-8.6l-33.7 18.1c4.9 4.3 8.2 10.2 9.2 16.6l6.9-3.6z" fill="#eac3a7"/><path d="m338.6 372.7.3.6-26.8 14.4c-5.1-4.5-11.7-7-18.6-7h-8.4l22.3-12.1c10.1-5.8 22.9-4.1 31.2 4.1z" fill="#d3b098"/><path d="m256 175.3c44.6 0 80.7 36.1 80.7 80.7 0 5.5-.5 10.9-1.6 16.3-9 43.7-51.7 71.8-95.3 62.8s-71.8-51.7-62.8-95.3c7.6-37.6 40.7-64.5 79-64.5z" fill="#f2cd7d"/><path d="m226.9 131.2-22.3 12.1c-10.1 5.9-22.9 4.2-31.1-4.1l-.3-.6 26.8-14.4c5.1 4.5 11.7 7 18.6 7z" fill="#d3b098"/><path d="m190.7 107.6-6.9 3.7-41.7 22.5v.1c4.7 8.2 15.7 12.8 24.2 8.6l33.6-18.1c-4.9-4.5-8.2-10.4-9.2-16.8z" fill="#eac3a7"/><path d="m133.1 376.5h-45.6l15.2 124.5h68.3z" fill="#5fa8ed"/><circle cx="256" cy="256" fill="#fadf4a" r="52.2"/><path d="m133.3 460.1c5 0 9.1 4.1 9.1 9.1s-4.1 9.1-9.1 9.1-9.1-4.1-9.1-9.1c0-5 4-9.1 9.1-9.1z" fill="#4689d3"/><path d="m341 11 38 124.4h24l-38-124.4z" fill="#58ba92"/><path d="m87.5 376.5 15.2 124.5h24l-15.2-124.5z" fill="#5999ce"/><path d="m227.8 256c0-24.2 16.6-45.2 40.2-50.8-28-6.6-56.1 10.7-62.8 38.7-6.6 28 10.7 56.1 38.7 62.8 7.9 1.9 16.1 1.9 24 0-23.4-5.5-40.1-26.5-40.1-50.7z" fill="#e0c244"/><path d="m378.7 33.7c5 0 9.1 4.1 9.1 9.1s-4.1 9.1-9.1 9.1-9.1-4.1-9.1-9.1c0-5.1 4.1-9.1 9.1-9.1z" fill="#4ca987"/><g fill="#284268"><path d="m118.2 469.2c0 8.4 6.7 15.1 15.1 15.1 8.3 0 15.1-6.8 15.1-15.1s-6.8-15.1-15.1-15.1-15.1 6.8-15.1 15.1zm15.1-3.1c1.7 0 3.1 1.4 3.1 3.1s-1.4 3.1-3.1 3.1-3.1-1.4-3.1-3.1 1.4-3.1 3.1-3.1z"/><path d="m430.4 134.7-15.1-124.4c-.4-3-2.9-5.3-6-5.3h-68c-2.6 0-5 1.5-5.9 4-.4 1.2-.5 2.6-.1 3.8l8.6 28.2-26.8 16.9c-3.3 1.8-7.2 2.3-10.9 1.4l-57.2-10.6c-14.6-2.6-29.6-.9-43.1 5-2.1.9-4 2-5.9 3.3l-96.6 66.2c-2.6 1.8-3.4 5.3-1.7 8 5.2 8.7 14.6 14 24.7 14 4.8 0 9.5-1.2 13.7-3.5l.4-.2c4.9 5.3 11.7 8.4 19 8.5 3.4 0 6.7-.7 9.7-2.2l3.1-1.6c10.2 8 24.2 9 35.5 2.5l20.9-11.4h27.9c5.9 0 11.7 1.3 17 3.9l3.9 1.9c23.2 11.3 50.9 8.6 71.5-7 .1-.1.2-.2.4-.3l9.4-8.4c2.9-2.6 6.3-4.6 10-5.9l4.8 15.8c.8 2.5 3.1 4.2 5.7 4.2h45.3c1.6 0 3.3-.6 4.4-1.7 1.1-1.5 1.6-3.3 1.4-5.1zm-266.9 2.3c-3.5 1.8-8.2.9-11.9-1.6l35.4-19.1c.9 2.2 2.1 4.3 3.4 6.2zm38.1 1.2c-5.2 3-11.6 3.5-17.2 1.3l15-8.1c2.4 1.6 4.9 2.9 7.6 3.9zm148.8-19.8-9.2 8.2c-17 12.7-39.7 14.9-58.8 5.6l-3.9-1.9c-6.9-3.3-14.5-5.1-22.2-5.1h-37.8c-9.8 0-18.4-6.4-21.2-15.8l25.1 1.1c10 .5 20 0 29.9-1.4 3.2-.4 5.7-3.4 5.3-6.6-.4-3.4-3.4-5.8-6.8-5.3-9.3 1.3-18.6 1.7-28 1.3l-32.3-1.5c-3.3-.2-6.1 2.4-6.3 5.7v.3 1l-50.2 27c-6 3.3-13.4 2.5-18.6-1.8l89.9-61.7c1.9-1.3 3.9-2.5 6.1-3.4 11.1-4.6 23.3-5.9 35.2-3.8l56.7 10.4c6.7 1.6 13.7.7 19.7-2.7l24.4-15.4 17.4 57.1c-5.3 2-10.2 4.9-14.4 8.7zm33 11-34.3-112.4h54.9l13.7 112.4z"/><path d="m378.7 27.7c-8.3 0-15.1 6.8-15.1 15.1s6.8 15.1 15.1 15.1c8.4 0 15.1-6.8 15.1-15.1s-6.8-15.1-15.1-15.1zm0 18.2c-1.7 0-3.1-1.4-3.1-3.1s1.4-3.1 3.1-3.1 3.1 1.4 3.1 3.1-1.4 3.1-3.1 3.1z"/><path d="m314.2 256c0-32.1-26.1-58.2-58.2-58.2s-58.2 26.1-58.2 58.2 26.1 58.2 58.2 58.2 58.2-26.1 58.2-58.2zm-58.2 46.2c-25.5 0-46.2-20.7-46.2-46.2s20.7-46.2 46.2-46.2 46.2 20.7 46.2 46.2-20.7 46.2-46.2 46.2z"/><path d="m256 235.5c3.9 0 7.1 3.2 7.1 7.1 0 3.3 2.7 6 6 6s6-2.7 6-6c0-8.4-5.5-15.6-13.1-18.1v-2.2c0-3.3-2.7-6-6-6s-6 2.7-6 6v2.2c-7.6 2.5-13.1 9.7-13.1 18.1 0 10.5 8.6 19.1 19.1 19.1 3.9 0 7.1 3.2 7.1 7.1s-3.1 7.1-7 7.1h-.1-.1c-3.9 0-7-3.2-7-7.1 0-3.3-2.7-6-6-6s-6 2.7-6 6c0 8.4 5.5 15.6 13.1 18.1v2.8c0 3.3 2.7 6 6 6s6-2.7 6-6v-2.8c7.6-2.5 13.1-9.7 13.1-18.1 0-10.5-8.6-19.1-19.1-19.1-3.9 0-7.1-3.2-7.1-7.1s3.2-7.1 7.1-7.1z"/><path d="m300.3 330.6c21-12.5 35.8-33.3 40.7-57.1 1.2-5.7 1.8-11.6 1.8-17.5-.1-47.8-39-86.7-86.8-86.7s-86.7 38.9-86.7 86.7 38.9 86.7 86.7 86.7c15.6 0 30.9-4.2 44.3-12.1zm-50.3-2.2v2.1c-16.1-1.3-30.8-7.7-42.4-17.6l1.5-1.5c2.3-2.3 2.3-6.1 0-8.5-2.3-2.3-6.1-2.3-8.5 0l-1.5 1.5c-9.9-11.6-16.3-26.3-17.6-42.4h2.1c3.3 0 6-2.7 6-6s-2.7-6-6-6h-2.1c1.3-16.1 7.7-30.8 17.6-42.4l1.5 1.5c1.2 1.2 2.7 1.8 4.2 1.8s3.1-.6 4.2-1.8c2.3-2.3 2.3-6.1 0-8.5l-1.5-1.5c11.6-9.9 26.3-16.3 42.4-17.6v2.1c0 3.3 2.7 6 6 6s6-2.7 6-6v-2.1c16.1 1.3 30.8 7.7 42.4 17.6l-1.5 1.5c-2.3 2.3-2.3 6.1 0 8.5 1.2 1.2 2.7 1.8 4.2 1.8s3.1-.6 4.2-1.8l1.5-1.5c9.9 11.6 16.3 26.3 17.6 42.4h-2.1c-3.3 0-6 2.7-6 6s2.7 6 6 6h2.1c-.1 3.1-.5 6.1-1.1 9.1-2.5 12.4-8.2 23.8-16.3 33.3l-1.5-1.5c-2.3-2.3-6.1-2.3-8.5 0-2.3 2.3-2.3 6.1 0 8.5l1.5 1.5c-3.2 2.7-6.6 5.2-10.3 7.4-9.8 5.8-20.8 9.3-32.1 10.2v-2.1c0-3.3-2.7-6-6-6s-6 2.7-6 6z"/><path d="m385.7 366.5c-4.8 0-9.5 1.2-13.7 3.5l-.4.2c-4.9-5.3-11.7-8.4-19-8.5-3.4 0-6.7.7-9.7 2.2l-3.1 1.6c-10.2-8-24.2-9-35.5-2.5l-20.9 11.4h-27.9c-5.9 0-11.7-1.3-17-3.9l-3.9-1.9c-23.2-11.3-50.9-8.6-71.5 7-.1.1-.2.2-.4.3l-9.4 8.4c-2.9 2.6-6.3 4.6-10 5.9l-4.8-15.8c-.8-2.5-3.1-4.2-5.7-4.2h-45.1c-1.6 0-3.3.6-4.4 1.7-1.4 1.4-1.9 3.2-1.7 5l15.2 124.4c.4 3 2.9 5.3 6 5.3h68c2.6 0 5-1.5 5.9-4 .4-1.2.5-2.6.1-3.8l-8.6-28.2 26.8-16.9c3.3-1.8 7.2-2.3 10.9-1.4l57.2 10.6c14.6 2.6 29.6.9 43.1-5 2.1-.9 4-2 5.9-3.3l96.6-66.2c2.6-1.7 3.3-5.2 1.7-7.9-5.2-8.7-14.6-14-24.7-14zm-37.2 8.2c3.5-1.8 8.2-.9 11.9 1.6l-35.4 19.1c-.9-2.2-2.1-4.3-3.4-6.2zm-38.1-1.2c5.2-3 11.6-3.5 17.2-1.3l-15 8.1c-2.4-1.6-4.9-2.9-7.6-3.9zm-202.4 121.1v.1l-13.7-112.5h34.3l34.3 112.4zm198.5-50.5c-1.9 1.3-3.9 2.5-6.1 3.4-11.1 4.6-23.3 5.9-35.2 3.8l-56.7-10.4c-6.7-1.6-13.7-.7-19.7 2.7l-24.4 15.4-17.4-57.1c5.3-1.8 10.3-4.7 14.5-8.5l9.2-8.2c17-12.7 39.7-14.9 58.8-5.6l3.9 1.9c6.9 3.3 14.5 5.1 22.2 5.1h37.8c9.8 0 18.4 6.4 21.2 15.8l-25.1-1.1c-10-.5-20 0-29.9 1.4-3.2.4-5.7 3.4-5.3 6.6.4 3.4 3.4 5.8 6.8 5.3 9.3-1.3 18.6-1.7 28-1.3l32.3 1.5c3.3.2 6.1-2.4 6.3-5.7 0-.1 0-.2 0-.3 0-.3 0-.7 0-1l50.2-27c6-3.3 13.4-2.5 18.6 1.8z"/></g></svg>